<svg xmlns="http://www.w3.org/2000/svg" version="1.1" xmlns:xlink="http://www.w3.org/1999/xlink" xmlns:svgjs="http://svgjs.dev/svgjs" width="1500" height="1500" viewBox="0 0 1500 1500"><rect width="1500" height="1500" fill="#ffffff"></rect><g transform="matrix(0.6666666666666666,0,0,0.6666666666666666,250.52546732630367,597.512490234375)"><svg viewBox="0 0 212 65" data-background-color="#ffffff" preserveAspectRatio="xMidYMid meet" height="459" width="1500" xmlns="http://www.w3.org/2000/svg" xmlns:xlink="http://www.w3.org/1999/xlink"><g id="tight-bounds" transform="matrix(1,0,0,1,-0.11139907317638631,-0.10886230468750568)"><svg viewBox="0 0 212.22279814635277 65.217724609375" height="65.217724609375" width="212.22279814635277"><g><svg viewBox="0 0 212.22279814635277 65.217724609375" height="65.217724609375" width="212.22279814635277"><g><svg viewBox="0 0 212.22279814635277 65.217724609375" height="65.217724609375" width="212.22279814635277"><g id="textblocktransform"><svg viewBox="0 0 212.22279814635277 65.217724609375" height="65.217724609375" width="212.22279814635277" id="textblock"><g><svg viewBox="0 0 212.22279814635277 65.217724609375" height="65.217724609375" width="212.22279814635277"><g><svg><g></g><g></g></svg></g><g><svg><g></g><g><svg></svg></g></svg></g><g id="text-0"><svg viewBox="0 0 212.22279814635277 65.217724609375" height="65.217724609375" width="212.22279814635277"><g><svg xmlns="http://www.w3.org/2000/svg" xmlns:xlink="http://www.w3.org/1999/xlink" version="1.1" x="0" y="0" viewBox="0.7 7.00467502167266 98.59818194650437 85.91754720054958" enable-background="new 0 0 100 100" xml:space="preserve" height="65.217724609375" width="74.84325713072776" class="icon-cg-0" data-fill-palette-color="accent" id="cg-0"></svg></g><g transform="matrix(1,0,0,1,90.24076689635277,0)"><svg width="121.98203124999999" viewBox="1.88 -39.6 75.39 40.31" height="65.217724609375" data-palette-color="url(#25cfe592-c8af-4dfd-abf5-d8626064565c)"></svg></g></svg></g></svg></g></svg></g></svg></g></svg></g><defs></defs><mask id="2f3e75db-67c2-48c5-9add-f00ab2025d67"><g id="SvgjsG1067"><svg viewBox="0 0 212.22279814635277 65.217724609375" height="65.217724609375" width="212.22279814635277"><g><svg viewBox="0 0 212.22279814635277 65.217724609375" height="65.217724609375" width="212.22279814635277"><g><svg viewBox="0 0 212.22279814635277 65.217724609375" height="65.217724609375" width="212.22279814635277"><g id="SvgjsG1066"><svg viewBox="0 0 212.22279814635277 65.217724609375" height="65.217724609375" width="212.22279814635277" id="SvgjsSvg1065"><g><svg viewBox="0 0 212.22279814635277 65.217724609375" height="65.217724609375" width="212.22279814635277"><g><svg><g></g><g></g></svg></g><g><svg><g></g><g><svg></svg></g></svg></g><g id="SvgjsG1064"><svg viewBox="0 0 212.22279814635277 65.217724609375" height="65.217724609375" width="212.22279814635277"><g><svg xmlns="http://www.w3.org/2000/svg" xmlns:xlink="http://www.w3.org/1999/xlink" version="1.1" x="0" y="0" viewBox="0.7 7.00467502167266 98.59818194650437 85.91754720054958" enable-background="new 0 0 100 100" xml:space="preserve" height="65.217724609375" width="74.84325713072776" class="icon-cg-0" data-fill-palette-color="accent" id="SvgjsSvg1063"><path d="M98.8 56.7c-1.3-1.9-2.8-4.7-4.2-7.5-1.4-2.7-2.5-7.3-2.5-10.3L92 37.9C90.8 19.9 75.1 5.7 56.5 7.1c-11 0.8-20.6 7.1-26 16.1l6.4 1.8 11.5 12.8 7.2 8.4h-29l-0.4-0.8c0.2 1 0.4 2 0.6 2.9l27.5 0.2L34.7 58.8l-2.2 1.3c0.4 0.6 0.9 1.2 1.4 1.7v14.9c0 1.4 0.9 2.7 2.2 3.1l38.2 13c1.4 0.5 2.9-0.6 2.9-2.1v-8h9.1c3.2 0 5.8-2.6 5.8-5.8V61.1h4.3C98.7 61.1 100.1 58.6 98.8 56.7zM58.5 46.2l-9.8-11.4 18.9-6.3-4.4 8.4L58.5 46.2zM65.4 37.2l4.4-8.4 9.4 8.7L65.4 37.2zM23.9 46.2L0.7 28.5 14 28.2 23.9 46.2zM26.1 45.4l-9.5-17.2-5.9-10.7 19.8 5.6c-2.9 4.8-4.6 10.3-4.8 16.1C25.7 41.3 25.8 43.4 26.1 45.4zM26.7 48.3c1.1 4.3 3.1 8.3 5.7 11.8L10.3 72.9l16.4-24.5L26.7 48.3z" fill="black"></path></svg></g><g transform="matrix(1,0,0,1,90.24076689635277,0)"><svg width="121.98203124999999" viewBox="1.88 -39.6 75.39 40.31" height="65.217724609375" data-palette-color="url(#25cfe592-c8af-4dfd-abf5-d8626064565c)"><path d="M20.14 0.71L20.14 0.71Q18.14 0.71 16.72 0.42 15.31 0.12 14.1-0.54 12.89-1.2 11.52-2.25L11.52-2.25 10.67 0 2.78 0 2.78-11.89 10.62-11.89Q11.38-9.84 12.95-9 14.53-8.15 16.82-8.15L16.82-8.15Q18.24-8.15 19.24-8.73 20.24-9.3 20.24-10.25L20.24-10.25Q20.24-11.45 19.21-12.05 18.19-12.65 16.33-13.16L16.33-13.16Q13.96-13.79 12.05-14.5 10.13-15.21 8.62-15.97L8.62-15.97Q5.59-17.48 3.74-20.26 1.88-23.05 1.88-27.66L1.88-27.66Q1.88-31.2 3.42-33.91L3.42-33.91Q4.93-36.6 7.78-38.1 10.62-39.6 14.48-39.6L14.48-39.6Q19.19-39.6 21.92-36.6L21.92-36.6 23.17-38.89 30.18-38.89 30.18-27.25 22.68-27.25Q21.63-29.44 20.36-30.3 19.09-31.15 16.87-31.15L16.87-31.15Q15.19-31.15 14.26-30.55 13.33-29.96 13.33-28.91L13.33-28.91Q13.33-27.73 14.67-27.12L14.67-27.12Q15.99-26.49 18.43-25.95L18.43-25.95Q22.71-24.98 25.81-23.49L25.81-23.49Q28.83-22 30.65-19.27 32.47-16.55 32.47-12.26L32.47-12.26Q32.47-8.62 30.96-5.66L30.96-5.66Q29.42-2.71 26.6-1 23.78 0.71 20.14 0.71ZM57.76-8.59L57.76 0 37.47 0 37.47-8.59 41.38-8.59 41.38-30.25 37.47-30.25 37.47-38.84 56.98-38.84 56.98-30.25 53.88-30.25 53.88-21.41 60.32-30.25 60.32-38.84 75.53-38.84 75.53-30.25 72.17-30.25 64.43-20.85 64.43-20.51Q68.38-20.51 70.63-19.15 72.87-17.8 72.87-14.45L72.87-14.45 72.87-10.5Q72.87-9.74 73.3-9.17 73.73-8.59 74.48-8.59L74.48-8.59 77.27-8.59 77.27 0 68.33 0Q60.13 0 60.13-7.5L60.13-7.5 60.13-11.74Q60.13-12.99 59.32-14.2 58.52-15.41 57.42-15.41L57.42-15.41 53.88-15.41 53.88-8.59 57.76-8.59Z" opacity="1" transform="matrix(1,0,0,1,0,0)" fill="white" class="wordmark-text-0"></path></svg></g></svg></g></svg></g></svg></g></svg></g></svg></g><defs><mask></mask></defs></svg><rect width="212.22279814635277" height="65.217724609375" fill="black" stroke="none" visibility="hidden"></rect></g></mask><linearGradient x1="0" x2="1" y1="0.578" y2="0.595" id="25cfe592-c8af-4dfd-abf5-d8626064565c"><stop stop-color="#6ee2f5" offset="0"></stop><stop stop-color="#6454f0" offset="1"></stop></linearGradient><rect width="212.22279814635277" height="65.217724609375" fill="#000000" mask="url(#2f3e75db-67c2-48c5-9add-f00ab2025d67)" data-fill-palette-color="primary"></rect><mask id="c7cf830c-8f8a-469b-8095-1726399df35a"><g id="SvgjsG1088"><svg viewBox="0 0 212.22279814635277 65.217724609375" height="65.217724609375" width="212.22279814635277"><g><svg viewBox="0 0 212.22279814635277 65.217724609375" height="65.217724609375" width="212.22279814635277"><g><svg viewBox="0 0 212.22279814635277 65.217724609375" height="65.217724609375" width="212.22279814635277"><g id="SvgjsG1087"><svg viewBox="0 0 212.22279814635277 65.217724609375" height="65.217724609375" width="212.22279814635277" id="SvgjsSvg1086"><g><svg viewBox="0 0 212.22279814635277 65.217724609375" height="65.217724609375" width="212.22279814635277"><g><svg><g></g><g></g></svg></g><g><svg><g></g><g><svg></svg></g></svg></g><g id="SvgjsG1085"><svg viewBox="0 0 212.22279814635277 65.217724609375" height="65.217724609375" width="212.22279814635277"><g><svg xmlns="http://www.w3.org/2000/svg" xmlns:xlink="http://www.w3.org/1999/xlink" version="1.1" x="0" y="0" viewBox="0.7 7.00467502167266 98.59818194650437 85.91754720054958" enable-background="new 0 0 100 100" xml:space="preserve" height="65.217724609375" width="74.84325713072776" class="icon-cg-0" data-fill-palette-color="accent" id="SvgjsSvg1084"><path d="M98.8 56.7c-1.3-1.9-2.8-4.7-4.2-7.5-1.4-2.7-2.5-7.3-2.5-10.3L92 37.9C90.8 19.9 75.1 5.7 56.5 7.1c-11 0.8-20.6 7.1-26 16.1l6.4 1.8 11.5 12.8 7.2 8.4h-29l-0.4-0.8c0.2 1 0.4 2 0.6 2.9l27.5 0.2L34.7 58.8l-2.2 1.3c0.4 0.6 0.9 1.2 1.4 1.7v14.9c0 1.4 0.9 2.7 2.2 3.1l38.2 13c1.4 0.5 2.9-0.6 2.9-2.1v-8h9.1c3.2 0 5.8-2.6 5.8-5.8V61.1h4.3C98.7 61.1 100.1 58.6 98.8 56.7zM58.5 46.2l-9.8-11.4 18.9-6.3-4.4 8.4L58.5 46.2zM65.4 37.2l4.4-8.4 9.4 8.7L65.4 37.2zM23.9 46.2L0.7 28.5 14 28.2 23.9 46.2zM26.1 45.4l-9.5-17.2-5.9-10.7 19.8 5.6c-2.9 4.8-4.6 10.3-4.8 16.1C25.7 41.3 25.8 43.4 26.1 45.4zM26.7 48.3c1.1 4.3 3.1 8.3 5.7 11.8L10.3 72.9l16.4-24.5L26.7 48.3z" fill="white"></path></svg></g><g transform="matrix(1,0,0,1,90.24076689635277,0)"><svg width="121.98203124999999" viewBox="1.88 -39.6 75.39 40.31" height="65.217724609375" data-palette-color="url(#25cfe592-c8af-4dfd-abf5-d8626064565c)"></svg></g></svg></g></svg></g></svg></g></svg></g></svg></g><defs><mask></mask></defs><mask><g id="SvgjsG1083"><svg viewBox="0 0 212.22279814635277 65.217724609375" height="65.217724609375" width="212.22279814635277"><g><svg viewBox="0 0 212.22279814635277 65.217724609375" height="65.217724609375" width="212.22279814635277"><g><svg viewBox="0 0 212.22279814635277 65.217724609375" height="65.217724609375" width="212.22279814635277"><g id="SvgjsG1082"><svg viewBox="0 0 212.22279814635277 65.217724609375" height="65.217724609375" width="212.22279814635277" id="SvgjsSvg1081"><g><svg viewBox="0 0 212.22279814635277 65.217724609375" height="65.217724609375" width="212.22279814635277"><g><svg><g></g><g></g></svg></g><g><svg><g></g><g><svg></svg></g></svg></g><g id="SvgjsG1080"><svg viewBox="0 0 212.22279814635277 65.217724609375" height="65.217724609375" width="212.22279814635277"><g><svg xmlns="http://www.w3.org/2000/svg" xmlns:xlink="http://www.w3.org/1999/xlink" version="1.1" x="0" y="0" viewBox="0.7 7.00467502167266 98.59818194650437 85.91754720054958" enable-background="new 0 0 100 100" xml:space="preserve" height="65.217724609375" width="74.84325713072776" class="icon-cg-0" data-fill-palette-color="accent" id="SvgjsSvg1079"><path d="M98.8 56.7c-1.3-1.9-2.8-4.7-4.2-7.5-1.4-2.7-2.5-7.3-2.5-10.3L92 37.9C90.8 19.9 75.1 5.7 56.5 7.1c-11 0.8-20.6 7.1-26 16.1l6.4 1.8 11.5 12.8 7.2 8.4h-29l-0.4-0.8c0.2 1 0.4 2 0.6 2.9l27.5 0.2L34.7 58.8l-2.2 1.3c0.4 0.6 0.9 1.2 1.4 1.7v14.9c0 1.4 0.9 2.7 2.2 3.1l38.2 13c1.4 0.5 2.9-0.6 2.9-2.1v-8h9.1c3.2 0 5.8-2.6 5.8-5.8V61.1h4.3C98.7 61.1 100.1 58.6 98.8 56.7zM58.5 46.2l-9.8-11.4 18.9-6.3-4.4 8.4L58.5 46.2zM65.4 37.2l4.4-8.4 9.4 8.7L65.4 37.2zM23.9 46.2L0.7 28.5 14 28.2 23.9 46.2zM26.1 45.4l-9.5-17.2-5.9-10.7 19.8 5.6c-2.9 4.8-4.6 10.3-4.8 16.1C25.7 41.3 25.8 43.4 26.1 45.4zM26.7 48.3c1.1 4.3 3.1 8.3 5.7 11.8L10.3 72.9l16.4-24.5L26.7 48.3z" fill="black"></path></svg></g><g transform="matrix(1,0,0,1,90.24076689635277,0)"><svg width="121.98203124999999" viewBox="1.88 -39.6 75.39 40.31" height="65.217724609375" data-palette-color="url(#25cfe592-c8af-4dfd-abf5-d8626064565c)"><path d="M20.14 0.71L20.14 0.71Q18.14 0.71 16.72 0.42 15.31 0.12 14.1-0.54 12.89-1.2 11.52-2.25L11.52-2.25 10.67 0 2.78 0 2.78-11.89 10.62-11.89Q11.38-9.84 12.95-9 14.53-8.15 16.82-8.15L16.82-8.15Q18.24-8.15 19.24-8.73 20.24-9.3 20.24-10.25L20.24-10.25Q20.24-11.45 19.21-12.05 18.19-12.65 16.33-13.16L16.33-13.16Q13.96-13.79 12.05-14.5 10.13-15.21 8.62-15.97L8.62-15.97Q5.59-17.48 3.74-20.26 1.88-23.05 1.88-27.66L1.88-27.66Q1.88-31.2 3.42-33.91L3.42-33.91Q4.93-36.6 7.78-38.1 10.62-39.6 14.48-39.6L14.48-39.6Q19.19-39.6 21.92-36.6L21.92-36.6 23.17-38.89 30.18-38.89 30.18-27.25 22.68-27.25Q21.63-29.44 20.36-30.3 19.09-31.15 16.87-31.15L16.87-31.15Q15.19-31.15 14.26-30.55 13.33-29.96 13.33-28.91L13.33-28.91Q13.33-27.73 14.67-27.12L14.67-27.12Q15.99-26.49 18.43-25.95L18.43-25.95Q22.71-24.98 25.81-23.49L25.81-23.49Q28.83-22 30.65-19.27 32.47-16.55 32.47-12.26L32.47-12.26Q32.47-8.62 30.96-5.66L30.96-5.66Q29.42-2.71 26.6-1 23.78 0.71 20.14 0.71ZM57.76-8.59L57.76 0 37.47 0 37.47-8.59 41.38-8.59 41.38-30.25 37.47-30.25 37.47-38.84 56.98-38.84 56.98-30.25 53.88-30.25 53.88-21.41 60.32-30.25 60.32-38.84 75.53-38.84 75.53-30.25 72.17-30.25 64.43-20.85 64.43-20.51Q68.38-20.51 70.63-19.15 72.87-17.8 72.87-14.45L72.87-14.45 72.87-10.5Q72.87-9.74 73.3-9.17 73.73-8.59 74.48-8.59L74.48-8.59 77.27-8.59 77.27 0 68.33 0Q60.13 0 60.13-7.5L60.13-7.5 60.13-11.74Q60.13-12.99 59.32-14.2 58.52-15.41 57.42-15.41L57.42-15.41 53.88-15.41 53.88-8.59 57.76-8.59Z" opacity="1" transform="matrix(1,0,0,1,0,0)" fill="black" class="wordmark-text-0"></path></svg></g></svg></g></svg></g></svg></g></svg></g></svg></g><defs><mask></mask></defs></svg><rect width="212.22279814635277" height="65.217724609375" fill="black" stroke="none" visibility="hidden"></rect></g></mask></svg><rect width="212.22279814635277" height="65.217724609375" fill="black" stroke="none" visibility="hidden"></rect></g></mask><linearGradient x1="0" x2="1" y1="0.578" y2="0.595" id="76d68c38-7358-4590-a7ac-2c67cd25b088"><stop stop-color="#6ee2f5" offset="0"></stop><stop stop-color="#6454f0" offset="1"></stop></linearGradient><rect width="212.22279814635277" height="65.217724609375" fill="#000000" mask="url(#c7cf830c-8f8a-469b-8095-1726399df35a)" data-fill-palette-color="accent"></rect></svg><rect width="212.22279814635277" height="65.217724609375" fill="none" stroke="none" visibility="hidden"></rect></g></svg></g></svg>